<svg width="60" height="56" viewBox="0 0 60 56" fill="none" xmlns="http://www.w3.org/2000/svg">
<g id="Group">
<g id="Group_2">
<path id="Vector" d="M59.8823 48.0824L56.9733 43.0661H57.8858C58.1969 43.0661 58.4845 42.8998 58.6398 42.6303C58.7952 42.3607 58.7947 42.0286 58.6386 41.7594L55.5602 36.4507H56.2465C56.5576 36.4507 56.8452 36.2844 57.0005 36.0149C57.1559 35.7452 57.1554 35.4131 56.9993 35.1439L50.2836 23.5629C50.1279 23.2945 49.8411 23.1293 49.5309 23.1293C49.2208 23.1293 48.9339 23.2945 48.7781 23.5629L46.2727 27.8835L30.905 0.975624C30.7501 0.704335 30.4617 0.537109 30.1493 0.537109C29.837 0.537109 29.5485 0.704452 29.3937 0.975624L14.2182 27.547L11.9079 23.5629C11.7521 23.2945 11.4654 23.1293 11.1552 23.1293C10.845 23.1293 10.5581 23.2945 10.4025 23.5629L3.6867 35.144C3.53061 35.4132 3.53014 35.7453 3.68553 36.015C3.84081 36.2845 4.12827 36.4508 4.43952 36.4508H5.12576L2.04725 41.7595C1.89116 42.0287 1.89069 42.3608 2.04608 42.6304C2.20147 42.9 2.48882 43.0662 2.80006 43.0662H3.71237L0.803428 48.0824C0.647335 48.3516 0.646866 48.6837 0.802256 48.9534C0.95753 49.2229 1.24499 49.3892 1.55624 49.3892H7.91529V54.4463C7.91529 54.927 8.30494 55.3164 8.78541 55.3164H14.1527C14.6333 55.3164 15.0228 54.9269 15.0228 54.4463V49.3892H20.7023H20.7539H27.0613V54.4463C27.0613 54.927 27.451 55.3164 27.9315 55.3164H33.2988C33.7793 55.3164 34.1689 54.9269 34.1689 54.4463V49.3892H39.8999C39.9053 49.3892 39.9105 49.3883 39.9159 49.3881C39.9212 49.3883 39.9264 49.3892 39.9318 49.3892H46.2908V54.4463C46.2908 54.927 46.6805 55.3164 47.161 55.3164H52.5282C53.0088 55.3164 53.3984 54.9269 53.3984 54.4463V49.3892H59.1294C59.4405 49.3892 59.7281 49.2229 59.8834 48.9534C60.0389 48.6839 60.0384 48.3516 59.8823 48.0824ZM30.1493 3.16187L34.6758 11.0876L32.8708 12.8924L30.5484 10.8481C30.2037 10.5449 29.6827 10.5615 29.3581 10.8859L27.3897 12.8544L25.6226 11.0875L30.1493 3.16187ZM13.2825 53.5761H9.65552V49.3892H13.2825V53.5761ZM14.1527 47.6489H8.78541H3.06667L5.97561 42.6325C6.13182 42.3634 6.13229 42.0312 5.97689 41.7616C5.82162 41.4921 5.53416 41.3258 5.22291 41.3258H4.31037L7.38877 36.0171C7.54486 35.7479 7.54533 35.4158 7.38994 35.1461C7.23467 34.8766 6.94721 34.7103 6.63596 34.7103H5.94982L11.155 25.734L16.3603 34.7103H15.674C15.3629 34.7103 15.0753 34.8766 14.92 35.1461C14.7647 35.4158 14.7651 35.7479 14.9212 36.0171L17.9996 41.3258H17.0871C16.7759 41.3258 16.4884 41.4921 16.3331 41.7616C16.1777 42.0312 16.1782 42.3634 16.3343 42.6325L19.2432 47.6489H14.1527ZM32.4286 53.5761H28.8017V49.3892H32.4286V53.5761ZM33.2989 47.6489H27.9316H22.2128L25.1218 42.6325C25.278 42.3634 25.2785 42.0312 25.1231 41.7616C24.9678 41.4921 24.6803 41.3258 24.3691 41.3258H23.4565L26.5349 36.0171C26.691 35.7479 26.6915 35.4158 26.5361 35.1461C26.3808 34.8766 26.0934 34.7103 25.7821 34.7103H25.096L30.3012 25.734L35.5064 34.7103H34.8202C34.5091 34.7103 34.2215 34.8766 34.0662 35.1461C33.9108 35.4158 33.9113 35.7479 34.0674 36.0171L37.1458 41.3258H36.2336C35.9225 41.3258 35.6349 41.4921 35.4796 41.7616C35.3242 42.0312 35.3247 42.3634 35.4808 42.6325L38.3897 47.6489H33.2989ZM39.9161 46.8119L37.744 43.0661H38.6566C38.9677 43.0661 39.2553 42.8998 39.4105 42.6303C39.5659 42.3607 39.5655 42.0286 39.4094 41.7594L36.331 36.4507H37.0172C37.3284 36.4507 37.6159 36.2844 37.7712 36.0149C37.9266 35.7452 37.9261 35.4131 37.77 35.1439L31.0544 23.5629C30.8986 23.2945 30.6119 23.1293 30.3016 23.1293C29.9914 23.1293 29.7045 23.2945 29.5489 23.5629L22.8332 35.1439C22.6771 35.4131 22.6767 35.7452 22.8321 36.0149C22.9873 36.2844 23.2748 36.4507 23.586 36.4507H24.2723L21.1939 41.7594C21.0378 42.0286 21.0373 42.3607 21.1927 42.6303C21.3481 42.8998 21.6355 43.0661 21.9467 43.0661H22.8592L20.7289 46.7399L18.5985 43.0661H19.5111C19.8222 43.0661 20.1098 42.8998 20.2651 42.6303C20.4205 42.3607 20.42 42.0286 20.2639 41.7594L17.1855 36.4507H17.8718C18.1829 36.4507 18.4705 36.2844 18.6257 36.0149C18.7811 35.7452 18.7807 35.4131 18.6246 35.1439L15.2289 29.2883L24.7279 12.654L26.7744 14.7005C27.1142 15.0402 27.6652 15.0402 28.0048 14.7005L30.0112 12.694L32.3336 14.7383C32.4985 14.8834 32.7036 14.9552 32.9084 14.9552C33.1318 14.9552 33.3545 14.8697 33.5239 14.7005L35.5703 12.654L45.2625 29.6246L42.0619 35.1439C41.9058 35.4131 41.9053 35.7452 42.0607 36.0149C42.216 36.2844 42.5035 36.4507 42.8147 36.4507H43.501L40.4226 41.7594C40.2665 42.0286 40.266 42.3607 40.4214 42.6303C40.5767 42.8998 40.8641 43.0661 41.1754 43.0661H42.0879L39.9161 46.8119ZM51.6583 53.5761H48.0313V49.3892H51.6583V53.5761ZM52.5284 47.6489H47.1611H41.4423L44.3513 42.6325C44.5074 42.3634 44.5078 42.0312 44.3524 41.7616C44.1972 41.4921 43.9097 41.3258 43.5985 41.3258H42.6859L45.7643 36.0171C45.9204 35.7479 45.9209 35.4158 45.7655 35.1461C45.6102 34.8766 45.3228 34.7103 45.0115 34.7103H44.3253L49.5305 25.734L54.7357 34.7103H54.0496C53.7384 34.7103 53.4509 34.8766 53.2956 35.1461C53.1402 35.4158 53.1407 35.7479 53.2968 36.0171L56.3752 41.3258H55.4626C55.1515 41.3258 54.8639 41.4921 54.7086 41.7616C54.5532 42.0312 54.5537 42.3634 54.7099 42.6325L57.6189 47.6489H52.5284Z" fill="black"/>
</g>
</g>
</svg>
