<svg width="31" height="6" viewBox="0 0 31 6" fill="none" xmlns="http://www.w3.org/2000/svg">
<path d="M3 5C4.10457 5 5 4.10457 5 3C5 1.89543 4.10457 1 3 1C1.89543 1 1 1.89543 1 3C1 4.10457 1.89543 5 3 5Z" fill="white"/>
<path d="M28 5C29.1046 5 30 4.10457 30 3C30 1.89543 29.1046 1 28 1C26.8954 1 26 1.89543 26 3C26 4.10457 26.8954 5 28 5Z" fill="white"/>
<path d="M23 3H8M3 5C4.10457 5 5 4.10457 5 3C5 1.89543 4.10457 1 3 1C1.89543 1 1 1.89543 1 3C1 4.10457 1.89543 5 3 5ZM28 5C29.1046 5 30 4.10457 30 3C30 1.89543 29.1046 1 28 1C26.8954 1 26 1.89543 26 3C26 4.10457 26.8954 5 28 5Z" stroke="white" stroke-width="2" stroke-linecap="round"/>
</svg>
